HIERARCHY
ROOT SimulationBone
{
	OFFSET 0.000000 0.000000 0.000000
	CHANNELS 6 Xposition Yposition Zposition Zrotation Yrotation Xrotation 
	JOINT Hips
	{
		OFFSET 0.000000 0.000000 0.000000
		CHANNELS 6 Xposition Yposition Zposition Zrotation Yrotation Xrotation 
		JOINT LeftUpLeg
		{
			OFFSET 0.103459 1.857831 10.548505
			CHANNELS 3 Zrotation Yrotation Xrotation
			JOINT LeftLeg
			{
				OFFSET 43.500004 -0.000023 -0.000004
				CHANNELS 3 Zrotation Yrotation Xrotation
				JOINT LeftFoot
				{
					OFFSET 42.372204 0.000019 -0.000006
					CHANNELS 3 Zrotation Yrotation Xrotation
					JOINT LeftToe
					{
						OFFSET 17.300005 0.000001 -0.000002
						CHANNELS 3 Zrotation Yrotation Xrotation
						End Site
						{
							OFFSET 0.000000 0.000000 0.000000
						}
					}
				}
			}
		}
		JOINT RightUpLeg
		{
			OFFSET 0.103461 1.857828 -10.548505
			CHANNELS 3 Zrotation Yrotation Xrotation
			JOINT RightLeg
			{
				OFFSET 43.500046 -0.000019 0.000006
				CHANNELS 3 Zrotation Yrotation Xrotation
				JOINT RightFoot
				{
					OFFSET 42.372261 -0.000015 0.000011
					CHANNELS 3 Zrotation Yrotation Xrotation
					JOINT RightToe
					{
						OFFSET 17.299999 -0.000003 0.000002
						CHANNELS 3 Zrotation Yrotation Xrotation
						End Site
						{
							OFFSET 0.000000 0.000000 0.000000
						}
					}
				}
			}
		}
		JOINT Spine
		{
			OFFSET 6.901964 -2.603731 0.000000
			CHANNELS 3 Zrotation Yrotation Xrotation
			JOINT Spine1
			{
				OFFSET 12.588102 -0.000003 0.000000
				CHANNELS 3 Zrotation Yrotation Xrotation
				JOINT Spine2
				{
					OFFSET 12.343204 0.000002 0.000000
					CHANNELS 3 Zrotation Yrotation Xrotation
					JOINT Neck
					{
						OFFSET 25.832891 -0.000013 0.000001
						CHANNELS 3 Zrotation Yrotation Xrotation
						JOINT Head
						{
							OFFSET 11.766613 0.000015 -0.000000
							CHANNELS 3 Zrotation Yrotation Xrotation
							End Site
							{
								OFFSET 0.000000 0.000000 0.000000
							}
						}
					}
					JOINT LeftShoulder
					{
						OFFSET 19.745911 -1.480375 6.000106
						CHANNELS 3 Zrotation Yrotation Xrotation
						JOINT LeftArm
						{
							OFFSET 11.284125 -0.000012 -0.000024
							CHANNELS 3 Zrotation Yrotation Xrotation
							JOINT LeftForeArm
							{
								OFFSET 33.000050 0.000007 0.000027
								CHANNELS 3 Zrotation Yrotation Xrotation
								JOINT LeftHand
								{
									OFFSET 25.200005 0.000018 0.000002
									CHANNELS 3 Zrotation Yrotation Xrotation
									End Site
									{
										OFFSET 0.000000 0.000000 0.000000
									}
								}
							}
						}
					}
					JOINT RightShoulder
					{
						OFFSET 19.746092 -1.480375 -6.000074
						CHANNELS 3 Zrotation Yrotation Xrotation
						JOINT RightArm
						{
							OFFSET 11.284139 -0.000017 -0.000020
							CHANNELS 3 Zrotation Yrotation Xrotation
							JOINT RightForeArm
							{
								OFFSET 33.000099 0.000021 0.000012
								CHANNELS 3 Zrotation Yrotation Xrotation
								JOINT RightHand
								{
									OFFSET 25.199780 0.000137 0.000427
									CHANNELS 3 Zrotation Yrotation Xrotation
									End Site
									{
										OFFSET 0.000000 0.000000 0.000000
									}
								}
							}
						}
					}
				}
			}
		}
	}
}
MOTION
Frames: 5
Frame Time: 0.016667
118.959517 0.000000 340.652585 0.000000 123.244289 0.000000 2.288877 90.525328 0.657873 96.935266 2.183531 178.798130 167.553470 -3.777629 -179.585187 -69.422329 -1.033749 -15.641752 82.383034 9.695131 -6.006636 21.454554 0.003102 0.000018 178.735916 -4.631971 -165.618316 -21.032073 2.923695 8.033134 88.128002 -6.426355 -5.316246 21.454554 -0.003094 -0.000001 7.102203 0.583125 -0.200410 4.189835 1.173095 -0.379808 3.871670 1.170650 -0.386886 -0.992296 1.185953 -1.199911 -5.247164 -1.239292 -0.541315 160.735582 -75.941330 18.303133 7.716510 59.954919 33.180677 -38.436558 -16.651222 1.552741 10.416201 -6.548267 24.408732 -167.305486 73.018138 14.394557 -21.594757 -56.707616 -28.607936 -25.416952 13.861156 -1.076229 10.727065 9.126964 1.735185 
118.689117 0.000000 340.042430 0.000000 122.541816 0.000000 2.273066 90.431374 0.628235 97.065172 2.127219 178.475743 165.170845 -2.702106 -177.752873 -69.906473 -0.930274 -16.468710 82.684282 10.436933 -5.191674 21.454555 0.003100 0.000019 178.904265 -4.641798 -166.085079 -21.746689 2.816946 7.726778 88.753144 -6.169171 -5.267889 21.454553 -0.003086 0.000000 7.171208 0.599342 -0.105179 4.328815 1.202218 -0.188096 4.010649 1.200918 -0.195357 -0.960705 1.142605 -1.055696 -5.478260 -1.436261 -0.358340 160.607593 -75.804481 18.440813 8.408830 60.451175 33.771473 -37.837338 -16.524715 1.529167 10.647782 -6.376993 24.088783 -168.266927 72.937482 13.405604 -24.073798 -55.693494 -26.845728 -27.640047 14.533502 -1.156236 10.237146 10.177843 1.178408 
118.405405 0.000000 339.416322 0.000000 121.813219 0.000000 2.291378 90.280733 0.625559 97.282756 2.166920 178.565816 162.810058 -1.704416 -175.799225 -69.223871 -0.671638 -16.799586 83.151635 10.699406 -5.051067 21.454557 0.003101 0.000021 179.233062 -4.812931 -166.966788 -22.354075 2.884395 7.862013 89.408996 -6.196143 -5.142765 21.454554 -0.003087 0.000000 7.266269 0.632956 -0.066638 4.519365 1.268058 -0.108736 4.201190 1.267231 -0.116399 -1.039150 0.969277 -0.949207 -5.579829 -1.424837 -0.302690 160.496737 -75.648290 18.562099 8.957515 60.795922 34.342185 -37.317711 -16.338192 1.503859 10.805342 -6.374118 23.215827 -168.927734 73.047467 12.726015 -26.511783 -54.959219 -24.807936 -29.839836 15.203613 -1.239091 10.042480 11.118684 0.245857 
118.112415 0.000000 338.767643 0.000000 121.058321 0.000000 2.350358 90.120293 0.622612 97.605328 2.214034 178.839871 160.666362 -0.777698 -173.892423 -67.226614 -0.459607 -16.683750 83.506261 10.616203 -5.125121 21.454560 0.003105 0.000022 179.810713 -5.018598 -167.922783 -22.754715 3.009534 8.115629 90.025219 -6.308043 -5.028047 21.454555 -0.003091 -0.000000 7.388787 0.661041 -0.038354 4.764762 1.323128 -0.049682 4.446575 1.322659 -0.057679 -1.157480 0.763494 -0.873734 -5.632291 -1.330862 -0.308793 160.385626 -75.531001 18.681649 9.406765 61.061814 34.984918 -36.948515 -16.210276 1.486733 11.007226 -6.274839 22.391824 -169.562792 73.271711 12.073483 -28.752121 -54.423994 -22.562352 -32.035768 15.830212 -1.323915 9.935202 11.952630 -0.817945 
117.813297 0.000000 338.086494 0.000000 120.274318 0.000000 2.442090 89.999178 0.591839 98.015785 2.172023 179.026390 158.899870 0.038420 -172.233610 -63.814049 -0.528581 -16.265254 83.493820 10.364614 -5.013120 21.454560 0.003111 0.000021 -179.336081 -5.118539 -168.627511 -22.891914 3.067311 8.152654 90.546887 -6.294122 -5.008201 21.454553 -0.003091 -0.000000 7.534043 0.657771 0.033657 5.056117 1.313491 0.095811 4.737930 1.313906 0.087872 -1.245488 0.639143 -0.824876 -5.722467 -1.286944 -0.305473 160.264151 -75.518170 18.806277 9.819982 61.337156 35.755832 -36.804662 -16.234102 1.484740 11.350943 -5.849864 22.210008 -170.378981 73.520002 11.235423 -30.654746 -54.005433 -20.241084 -34.245829 16.388075 -1.408818 9.660215 12.716861 -1.739358 
